<svg width="166px" height="222px" viewBox="0 0 166 222" version="1.1" xmlns="http://www.w3.org/2000/svg" xmlns:xlink="http://www.w3.org/1999/xlink">
	<defs>
		<linearGradient id="linearGradient-1" x1="0%" y1="100%" x2="100%" y2="100%" gradientTransform="rotate(110)">
			<stop offset="0%" style="stop-color:#BAC8DD;stop-opacity:1" />
			<stop offset="80%" style="stop-color:#F3D6C7;stop-opacity:1" />
		</linearGradient>
	</defs>
	<g id="Page" stroke="none" stroke-width="1" fill="none" fill-rule="evenodd">
		<g id="Desktop-HD" transform="translate(-1227.000000, -2509.000000)" fill="url(#linearGradient-1)" fill-rule="nonzero">
			<path d="M1392.22142,2730.27831 L1392.22142,2687.77121 L1303.79813,2687.77121 L1303.79813,2686.38627 L1329.89898,2662.30956 C1345.73705,2648.53115 1357.97071,2636.70587 1366.59997,2626.83371 C1375.22923,2616.96155 1381.2129,2607.94166 1384.55097,2599.77405 C1387.88903,2591.60644 1389.55807,2583.3678 1389.55807,2575.05814 C1389.55807,2561.98996 1386.20224,2550.50203 1379.4906,2540.59436 C1372.77895,2530.68669 1363.31517,2522.96297 1351.09926,2517.4232 C1338.88335,2511.88342 1324.50125,2509.11354 1307.95296,2509.11354 C1291.90182,2509.11354 1277.82156,2512.04323 1265.71219,2517.9026 C1253.60281,2523.76198 1244.21006,2532.08939 1237.53392,2542.88484 C1230.85778,2553.6803 1227.51972,2566.4999 1227.51972,2581.34365 L1227.51972,2581.34365 L1277.48421,2581.34365 C1277.48421,2574.73854 1278.74486,2569.12774 1281.26617,2564.51127 C1283.78747,2559.89479 1287.32085,2556.36141 1291.86631,2553.91112 C1296.41176,2551.46084 1301.70296,2550.2357 1307.73989,2550.2357 C1313.7058,2550.2357 1318.99699,2551.40757 1323.61347,2553.75132 C1328.22994,2556.09507 1331.8521,2559.41538 1334.47994,2563.71226 C1337.10778,2568.00913 1338.42171,2573.17604 1338.42171,2579.21297 C1338.42171,2584.6107 1337.32085,2589.60004 1335.11915,2594.18101 C1332.91744,2598.76198 1329.72142,2603.30743 1325.53108,2607.81737 C1321.34074,2612.32732 1316.26261,2617.28115 1310.29671,2622.67888 L1310.29671,2622.67888 L1230.71574,2692.35217 L1230.71574,2730.27831 L1392.22142,2730.27831 Z" id="2" transform="translate(1309.870569, 2619.695924) rotate(-360.000000) translate(-1309.870569, -2619.695924) ">
			</path>
		</g>
	</g>
</svg>
