<svg width="175px" height="225px" viewBox="0 0 175 225" version="1.1" xmlns="http://www.w3.org/2000/svg" xmlns:xlink="http://www.w3.org/1999/xlink">
		<defs>
		<linearGradient id="linearGradient-1" x1="100%" y1="0%" x2="100%" y2="100%" gradientTransform="rotate(0)">
			<stop offset="0%" style="stop-color:#F3D6C7;stop-opacity:1" />
			<stop offset="100%" style="stop-color:#CDA8C5;stop-opacity:1" />
		</linearGradient>
	</defs>
	<g id="Page" stroke="none" stroke-width="1" fill="none" fill-rule="evenodd">
		<g id="Desktop-HD" transform="translate(-12.000000, -3189.000000)" fill="url(#linearGradient-1)" fill-rule="nonzero">
			<path d="M98.7057961,3413.26127 C115.751251,3413.26127 130.861336,3410.47362 144.036052,3404.89834 C157.210768,3399.32305 167.509063,3391.6526 174.930938,3381.88698 C182.352813,3372.12135 186.065469,3360.91752 186.065469,3348.27547 C186.134773,3334.85217 181.855654,3323.66609 173.226393,3314.71723 C164.597131,3305.76837 151.830796,3300.29962 134.927387,3298.31098 L134.927387,3296.60644 C147.569432,3294.75984 157.920995,3289.85928 165.982074,3281.90473 C174.043154,3273.95019 178.038182,3263.82945 177.96716,3251.54252 C177.96716,3239.68172 174.664603,3229.04607 168.059489,3219.63555 C161.454376,3210.22504 152.221421,3202.78541 140.360626,3197.31666 C128.49983,3191.84791 114.756932,3189.11354 99.1319324,3189.11354 C83.4359097,3189.11354 69.4621881,3191.91894 57.2107677,3197.52973 C44.9593472,3203.14053 35.2825006,3210.89976 28.1802279,3220.80743 C21.0779552,3230.7151 17.4557961,3242.16752 17.3137506,3255.16467 L67.7043756,3255.16467 C67.8464211,3250.19308 69.302387,3245.82519 72.0722733,3242.06098 C74.8421597,3238.29678 78.5886086,3235.38484 83.3116199,3233.32519 C88.0346313,3231.26553 93.3080688,3230.2357 99.1319324,3230.2357 C104.671705,3230.2357 109.554518,3231.26553 113.78037,3233.32519 C118.006222,3235.38484 121.308779,3238.27902 123.68804,3242.00771 C126.067302,3245.73641 127.221421,3250.05104 127.150398,3254.95161 C127.221421,3259.99422 125.871989,3264.4509 123.102103,3268.32163 C120.332217,3272.19237 116.479234,3275.19308 111.543154,3277.32377 C106.607074,3279.45445 100.907501,3280.51979 94.4444324,3280.51979 L73.2441483,3280.51979 L73.2441483,3318.01979 L94.4444324,3318.01979 C101.830796,3318.01979 108.240597,3319.12064 113.673836,3321.32234 C119.107074,3323.52405 123.315171,3326.61354 126.298126,3330.59081 C129.28108,3334.56808 130.737046,3339.11354 130.666023,3344.22717 C130.737046,3349.34081 129.423126,3353.86851 126.724262,3357.81027 C124.025398,3361.75203 120.278949,3364.84152 115.484915,3367.07874 C110.690881,3369.31595 105.168864,3370.43456 98.9188642,3370.43456 C92.6688642,3370.43456 87.0935802,3369.40473 82.193012,3367.34507 C77.2924438,3365.28541 73.4217052,3362.42675 70.5807961,3358.76908 C67.739887,3355.11141 66.2128983,3350.90331 65.9998302,3346.14479 L12.9458529,3346.14479 C13.0878983,3359.28399 16.8521029,3370.89621 24.2384665,3380.98144 C31.6248302,3391.06666 41.7278131,3398.96794 54.5474154,3404.68527 C67.3670177,3410.4026 82.0864779,3413.26127 98.7057961,3413.26127 Z" id="3" transform="translate(99.505661, 3301.187402) rotate(-360.000000) translate(-99.505661, -3301.187402) ">
			</path>
		</g>
	</g>
</svg>
