<svg width="261px" height="261px" viewBox="0 0 261 261" version="1.1" xmlns="http://www.w3.org/2000/svg" xmlns:xlink="http://www.w3.org/1999/xlink">
	<defs>
		<linearGradient id="linearGradient-1" x1="0%" y1="100%" x2="100%" y2="100%" gradientTransform="rotate(110)">
			<stop offset="0%" style="stop-color:#BAC8DD;stop-opacity:1" />
			<stop offset="80%" style="stop-color:#F3D6C7;stop-opacity:1" />
		</linearGradient>
	</defs>
	<g id="Page" stroke="none" stroke-width="1" fill="none" fill-rule="evenodd" opacity="0.8">
		<g id="Desktop-HD" transform="translate(-812.000000, -1107.000000)">
			<g id="work_outline_black_24dp" transform="translate(812.000000, 1107.000000)">
				<polygon id="Path" points="0 0 261 0 261 261 0 261">
				</polygon>
				<path d="M152.193506,65.562201 L152.193506,43.7973342 L108.806494,43.7973342 L108.806494,65.562201 L152.193506,65.562201 Z M43.725974,87.3270677 L43.725974,207.033835 L217.274026,207.033835 L217.274026,87.3270677 L43.725974,87.3270677 Z M217.274026,65.562201 C229.313922,65.562201 238.967532,75.2475666 238.967532,87.3270677 L238.967532,207.033835 C238.967532,219.113336 229.313922,228.798701 217.274026,228.798701 L43.725974,228.798701 C31.6860779,228.798701 22.0324675,219.113336 22.0324675,207.033835 L22.1409351,87.3270677 C22.1409351,75.2475666 31.6860779,65.562201 43.725974,65.562201 L87.112987,65.562201 L87.112987,43.7973342 C87.112987,31.7178332 96.7665974,22.0324675 108.806494,22.0324675 L152.193506,22.0324675 C164.233403,22.0324675 173.887013,31.7178332 173.887013,43.7973342 L173.887013,65.562201 L217.274026,65.562201 Z" id="Shape" fill="url(#linearGradient-1)" fill-rule="nonzero">
				</path>
			</g>
		</g>
	</g>
</svg>
