<?xml version="1.0" standalone="no"?>
<!DOCTYPE svg PUBLIC "-//W3C//DTD SVG 20010904//EN"
 "http://www.w3.org/TR/2001/REC-SVG-20010904/DTD/svg10.dtd">
<svg version="1.0" xmlns="http://www.w3.org/2000/svg"
 width="1062.000000pt" height="1062.000000pt" viewBox="0 0 1062.000000 1062.000000"
 preserveAspectRatio="xMidYMid meet">
<metadata>
Created by potrace 1.14, written by Peter Selinger 2001-2017
</metadata>
<g transform="translate(0.000000,1062.000000) scale(0.100000,-0.100000)"
fill="#000000" stroke="none">
<path d="M5095 10454 c-594 -28 -1175 -155 -1725 -376 -74 -30 -103 -43 -210
-92 -148 -68 -378 -190 -500 -265 -19 -12 -43 -24 -52 -27 -10 -4 -18 -10 -18
-14 0 -5 -10 -12 -22 -16 -13 -4 -25 -9 -28 -13 -11 -13 -160 -111 -170 -111
-5 0 -10 -4 -10 -9 0 -5 -17 -20 -37 -32 -21 -13 -40 -26 -43 -29 -13 -15 -89
-70 -97 -70 -4 0 -14 -9 -21 -20 -7 -11 -17 -20 -23 -20 -7 0 -19 -8 -28 -18
-9 -10 -34 -31 -55 -48 -41 -30 -70 -55 -121 -105 -16 -16 -33 -29 -37 -29 -4
0 -36 -28 -71 -62 -35 -35 -101 -100 -148 -146 -78 -76 -157 -160 -240 -255
-19 -21 -49 -54 -66 -74 -18 -19 -33 -38 -33 -41 0 -6 -22 -32 -95 -114 -8
-10 -15 -21 -15 -24 0 -8 -73 -98 -82 -102 -5 -2 -8 -9 -8 -15 0 -7 -11 -24
-25 -39 -14 -15 -25 -31 -25 -36 0 -4 -8 -17 -18 -28 -10 -10 -33 -45 -52 -76
-19 -32 -38 -58 -42 -58 -5 0 -8 -4 -8 -10 0 -5 -16 -35 -36 -66 -83 -130
-230 -405 -307 -574 -227 -499 -370 -1028 -432 -1600 -23 -202 -30 -646 -16
-866 36 -541 174 -1135 374 -1614 67 -160 74 -174 157 -340 123 -246 191 -363
321 -557 27 -40 49 -77 49 -83 0 -5 4 -10 9 -10 5 0 20 -17 32 -37 13 -21 29
-44 37 -52 7 -8 21 -26 30 -40 21 -33 24 -36 72 -91 22 -25 40 -48 40 -51 0
-3 9 -17 21 -30 11 -13 35 -41 52 -62 18 -22 42 -48 55 -60 12 -11 22 -24 22
-29 0 -4 21 -29 47 -56 27 -27 94 -95 150 -153 55 -57 136 -135 179 -174 43
-38 92 -83 111 -100 46 -42 85 -75 188 -156 50 -39 99 -78 110 -87 11 -10 37
-28 58 -41 20 -12 37 -26 37 -29 0 -4 12 -13 28 -20 15 -6 38 -21 52 -32 44
-36 253 -168 318 -202 34 -17 62 -35 62 -40 0 -4 6 -8 13 -8 7 0 38 -15 68
-33 63 -37 361 -180 474 -227 105 -43 295 -114 365 -135 518 -156 837 -215
1330 -246 451 -28 1032 25 1485 137 129 32 431 121 472 140 17 8 34 14 38 14
6 0 199 72 240 90 11 5 43 19 70 31 108 46 144 63 255 119 123 62 174 90 291
157 41 24 92 53 114 65 22 13 42 25 45 28 3 3 34 25 70 48 36 23 76 50 89 60
13 9 35 24 49 32 14 8 36 25 50 38 14 12 29 22 33 22 4 0 25 16 46 35 21 19
41 35 45 35 5 0 16 8 26 17 27 26 62 53 67 53 2 0 15 10 28 23 13 12 32 29 43
38 142 115 378 339 499 475 39 43 85 93 103 112 17 18 32 36 32 39 0 2 6 10
13 17 20 21 74 87 123 151 25 33 53 66 61 73 9 6 13 12 9 12 -6 0 44 72 64 90
3 3 10 12 15 21 30 49 111 166 122 177 7 7 13 18 13 23 0 6 18 37 40 70 22 33
40 65 40 70 0 5 4 9 8 9 4 0 13 12 20 27 7 16 25 51 41 78 32 56 201 392 201
400 0 2 15 37 34 77 19 40 46 105 61 143 14 39 35 91 46 117 10 26 19 52 19
58 0 7 6 26 14 43 52 122 162 554 205 808 47 281 62 448 68 760 9 471 -31 858
-133 1294 -50 213 -171 591 -230 723 -13 29 -24 56 -24 61 0 4 -13 35 -30 69
-16 34 -30 65 -30 68 0 15 -202 406 -243 471 -15 24 -27 45 -27 48 0 3 -20 36
-45 73 -25 37 -45 72 -45 79 0 7 -3 13 -7 13 -5 0 -21 21 -38 48 -16 26 -46
70 -67 98 -21 28 -38 56 -38 62 0 7 -4 12 -9 12 -4 0 -27 26 -49 58 -23 32
-48 64 -56 71 -9 8 -13 17 -10 22 3 5 1 9 -5 9 -6 0 -28 24 -50 53 -21 28 -47
61 -57 72 -11 11 -36 41 -58 65 -172 199 -376 401 -572 565 -26 22 -59 50 -71
63 -13 12 -27 22 -30 22 -6 0 -46 32 -150 120 -7 5 -15 10 -19 10 -3 0 -24 14
-46 31 -21 18 -90 65 -151 105 -62 41 -117 78 -124 84 -7 5 -16 10 -22 10 -5
0 -11 3 -13 8 -1 4 -24 18 -50 32 -27 13 -48 28 -48 31 0 4 -11 10 -24 13 -14
3 -31 12 -38 19 -7 6 -45 28 -83 48 -39 19 -101 52 -140 71 -74 39 -222 108
-230 108 -2 0 -28 11 -57 24 -318 146 -849 297 -1249 355 -290 43 -726 67
-984 55z"/>
</g>
</svg>
